<?xml version="1.0" encoding="UTF-8" standalone="no" ?>
<!DOCTYPE svg PUBLIC "-//W3C//DTD SVG 1.1//EN" "http://www.w3.org/Graphics/SVG/1.1/DTD/svg11.dtd">
<svg xmlns="http://www.w3.org/2000/svg" xmlns:xlink="http://www.w3.org/1999/xlink" version="1.1" width="1080" height="1080" viewBox="0 0 1080 1080" xml:space="preserve">
<desc>Created with Fabric.js 5.2.4</desc>
<defs>
</defs>
<g transform="matrix(1 0 0 1 540 540)" id="5ef797c7-82f7-4f99-8f76-cb845e4f7355"  >
<rect style="stroke: none; stroke-width: 1; stroke-dasharray: none; stroke-linecap: butt; stroke-dashoffset: 0; stroke-linejoin: miter; stroke-miterlimit: 4; fill: rgb(255,255,255); fill-rule: nonzero; opacity: 1; visibility: hidden;" vector-effect="non-scaling-stroke"  x="-540" y="-540" rx="0" ry="0" width="1080" height="1080" />
</g>
<g transform="matrix(1 0 0 1 540 540)" id="418ec36c-5e8c-488a-adc5-43b0950fc998"  >
</g>
<g transform="matrix(50.12 0 0 50.12 540 540)" id="path890"  >
<path style="stroke: rgb(0,0,0); stroke-width: 0; stroke-dasharray: none; stroke-linecap: butt; stroke-dashoffset: 0; stroke-linejoin: miter; stroke-miterlimit: 4; fill: rgb(0,0,0); fill-rule: nonzero; opacity: 1;" vector-effect="non-scaling-stroke"  transform=" translate(-10.5, -12)" d="M 7 2 L 17 2 L 17 8 L 19 8 L 19 13 L 16.5 13 L 13 17 L 11 17 L 7.5 13 L 5 13 L 5 8 L 7 8 L 7 2 M 10 22 L 2 22 L 2 20 L 10 20 C 10.552284749830793 20 11 19.552284749830793 11 19 L 11 18 L 13 18 L 13 19 C 13 20.65685424949238 11.65685424949238 22 10 22 Z" stroke-linecap="round" />
</g>
</svg>